<svg xmlns="http://www.w3.org/2000/svg" viewBox="0 0 600 270"><defs><style>.cls-1{fill:#b8d7db;}.cls-1,.cls-2{fill-rule:evenodd;}.cls-2{fill:#09a0a1;}</style></defs><g id="Слой_2" data-name="Слой 2"><g id="Слой_1-2" data-name="Слой 1"><g id="Слой_1-3" data-name="Слой_1"><g id="_105553166620160" data-name=" 105553166620160"><path class="cls-1" d="M270.4,186.89l-20.95-64.44L195,92.06a34.13,34.13,0,0,0-9.76-3.57L242.23,37c5.28-4.79,1.93-13.76-5.29-13.66H169.41L123.75,65.75a37.82,37.82,0,0,0-6.21,7.75L86.12,4.57a7.88,7.88,0,0,0-14.65.91L51.34,70.13,78,126.53a31.75,31.75,0,0,0,4.68,7.24L7,142.13A7.93,7.93,0,0,0,3.24,156.4l54.81,39.47,61.83-7.65a32.78,32.78,0,0,0,9.46-2.65l-15.66,74.84A7.88,7.88,0,0,0,126,268.47l54.61-40,12-61.19A31.6,31.6,0,0,0,193,158l66,38.14a7.88,7.88,0,0,0,11.39-9.28Z"/><path class="cls-2" d="M249.45,122.45l-53.8-30.7C180.19,83,160.77,87.37,151.51,102c-4.68-27.63.51-59.86,17.9-78.62L123.65,65c-13.22,12.23-15.06,32.32-3.77,45.58-27.46-3.88-56.13-18.46-68.54-40.49l25.93,56.29c7.32,15.61,24.71,23.36,40.27,18C105.14,169,82.46,191,58.05,195.87l61.43-6.94c17.69-2.14,30.71-17,29.69-34.16,19.94,19.48,34.38,48.54,31.43,73.73L193,167.82c3.46-17.13-6.2-34-22.37-38.75,24.51-12.54,56-17.13,78.82-6.62Z"/><path class="cls-2" d="M371.38,98.48c14.85,0,26.75-8.26,26.75-21.11,0-12.64-11.9-20.59-26.75-20.59H342.81v41.7Zm-28.57,34.78h0v45.17H304.16V22.62H372.3c38.34,0,64.17,21,64.17,54.75,0,21.72-11.19,39-29.7,48.34l40,52.72H400.16l-33.35-45.17Z"/><path class="cls-2" d="M599.9,105.83c0,48.33-27.87,76.07-72.41,76.07-44.34,0-72.31-27.74-72.31-76.07V22.62H494v83.82c0,23.86,13.12,39.26,33.46,39.26s33.56-15.4,33.56-39.26V22.62H599.9Z"/><path class="cls-2" d="M331.11,254.5c10.88,0,19.22-8.06,19.22-18.76,0-10.4-8.34-18.36-19.22-18.36H320.84V254.5Zm0-52.21h0c21.05,0,36.2,13.77,36.2,33.45,0,20-15.15,33.85-36.2,33.85H304.16v-67.3Z"/><path class="cls-2" d="M405.86,235c6.41,0,11.49-3.57,11.49-9.07s-5.08-8.87-11.49-8.87H393.45V235Zm-12.41,15.1h0v19.47H376.77v-67.3h29.39c16.58,0,27.77,9.18,27.77,23.66a22.79,22.79,0,0,1-12.82,20.9l17.29,22.74H418.27l-14.45-19.47Z"/><polygon class="cls-2" points="461.28 269.59 444.61 269.59 444.61 202.29 461.28 202.29 461.28 269.59"/><polygon class="cls-2" points="513.96 270 497.18 270 468.1 202.29 486.5 202.29 505.62 247.87 524.74 202.29 543.05 202.29 513.96 270"/><polygon class="cls-2" points="565.93 229.11 595.63 229.11 595.63 243.38 565.93 243.38 565.93 255.01 600 255.01 600 269.59 549.35 269.59 549.35 202.29 600 202.29 600 216.87 565.93 216.87 565.93 229.11"/></g></g></g></g></svg>